<svg width="80" height="28" viewBox="0 0 80 28" fill="none" xmlns="http://www.w3.org/2000/svg">
<path d="M36.96 5C38.3407 5 39.46 3.88071 39.46 2.5C39.46 1.11929 38.3407 0 36.96 0C35.5793 0 34.46 1.11929 34.46 2.5C34.46 3.88071 35.5793 5 36.96 5Z" fill="#30BF54"/>
<path d="M26 4V26H29V28H19V26H22V6H21.7L13.5 23.58L5.3 6V26H8V28H0V26H2.7V4H0V2H8L14.5 15.94L21 2H29V4H26Z" fill="#30BF54"/>
<path d="M41.5 28V26H39V8L35 8.6L32.4 9V11L35 11.4V26H32.4V28H41.5Z" fill="#30BF54"/>
<path d="M65.7 28V26H63V14C63 10.68 60.32 8 57 8C54.04 8 51.58 10.14 51.1 12.94V8L47.1 8.6L44.5 9V11L47.1 11.4V26H44.5V28H53.6V26H51.1V14.96C51.1 12.76 52.84 11 55.04 11C57.24 11 59 12.76 59 14.96V26H56.6V28H65.7Z" fill="#30BF54"/>
<path d="M74.7 11V26H80V28H72.7C71.6 28 70.7 27.1 70.7 26V11H66.96V9H68.2C69.24 9 70.12 8.36 70.5 7.48L70.7 7.06L72.6 3H74.7V9H80V11H74.7Z" fill="#30BF54"/>
</svg>
