<svg width="126" height="32" viewBox="0 0 126 32" fill="none" xmlns="http://www.w3.org/2000/svg">
<path d="M72 6V28H75V30H65V28H68V8H67.7L59.5 25.58L51.3 8V28H54V30H46V28H48.7V6H46V4H54L60.5 17.94L67 4H75V6H72Z" fill="black"/>
<path d="M87.5 30V28H85V10L81 10.6L78.4 11V13L81 13.4V28H78.4V30H87.5Z" fill="black"/>
<path d="M111.7 30V28H109V16C109 12.68 106.32 10 103 10C100.04 10 97.58 12.14 97.1 14.94V10L93.1 10.6L90.5 11V13L93.1 13.4V28H90.5V30H99.6V28H97.1V16.96C97.1 14.76 98.84 13 101.04 13C103.24 13 105 14.76 105 16.96V28H102.6V30H111.7Z" fill="black"/>
<path d="M120.7 13V28H126V30H118.7C117.6 30 116.7 29.1 116.7 28V13H112.96V11H114.2C115.24 11 116.12 10.36 116.5 9.48L116.7 9.06L118.6 5H120.7V11H126V13H120.7Z" fill="black"/>
<path d="M82.96 7C84.3407 7 85.46 5.88071 85.46 4.5C85.46 3.11929 84.3407 2 82.96 2C81.5793 2 80.46 3.11929 80.46 4.5C80.46 5.88071 81.5793 7 82.96 7Z" fill="black"/>
<path d="M0 0C8.83656 0 16 7.16344 16 16C7.16344 16 0 8.83656 0 0Z" fill="black"/>
<path d="M32 32C23.1634 32 16 24.8366 16 16C24.8366 16 32 23.1634 32 32Z" fill="black"/>
<path d="M16 16C16 11.5817 19.5817 8 24 8C24 12.4183 20.4183 16 16 16Z" fill="black"/>
<path d="M16 16C16 20.4183 12.4183 24 8 24C8 19.5817 11.5817 16 16 16Z" fill="black"/>
</svg>
